<svg width="512" height="512" version="1.1" xmlns="http://www.w3.org/2000/svg" desc="Created with imagetracer.js version 1.2.6" ><path fill="rgb(0,0,0)" stroke="rgb(0,0,0)" stroke-width="1" opacity="0.9725490196078431" d="M 240.5 0 L 271.5 0 L 272.5 1 L 291.5 2 L 321.5 8 L 346.5 16 Q 401.4 37.6 439 76.5 Q 475.4 113.1 496 165.5 L 504 190.5 L 510 220.5 L 511 239.5 L 512 240.5 L 512 271.5 L 511 272.5 L 510 291.5 L 504 321.5 Q 497.3 346.3 487 367.5 Q 466.7 408.7 435.5 439 Q 398.9 475.4 346.5 496 L 321.5 504 L 291.5 510 L 272.5 511 L 271.5 512 L 240.5 512 L 239.5 511 L 220.5 510 L 190.5 504 Q 165.7 497.3 144.5 487 Q 103.3 466.7 73 435.5 Q 36.6 398.9 16 346.5 L 8 321.5 L 2 291.5 L 1 272.5 L 0 271.5 L 0 240.5 L 1 239.5 L 2 220.5 L 8 190.5 Q 14.7 165.7 25 144.5 Q 45.3 103.3 76.5 73 Q 109.7 40.2 155.5 20 L 198.5 6 L 220.5 2 L 239.5 1 L 240.5 0 Z M 247 27 L 246 28 L 233 28 L 232 29 L 225 29 L 208 32 Q 185 37 167 45 Q 130 61 103 86 Q 70 115 50 156 Q 41 174 35 196 L 29 225 L 28 246 L 27 247 L 27 266 L 28 267 L 29 288 L 35 317 L 41 336 Q 58 378 86 410 Q 115 442 156 462 Q 174 471 196 477 L 225 483 L 246 484 L 247 485 L 266 485 L 267 484 L 288 483 L 317 477 L 336 471 Q 378 454 410 426 Q 442 397 462 357 Q 471 338 477 317 L 483 288 L 484 267 L 485 266 L 485 247 L 484 246 L 483 225 L 477 196 L 471 177 Q 454 134 426 103 Q 393 66 346 45 Q 325 36 300 31 L 281 29 L 280 28 L 247 27 Z " /><path fill="rgb(0,0,0)" stroke="rgb(0,0,0)" stroke-width="1" opacity="0.9725490196078431" d="M 272.5 130 L 280.5 130 L 287.5 132 Q 295.9 135.6 301 142.5 Q 306.8 149.7 307 162.5 L 304 174.5 L 294.5 186 Q 287.1 192.6 272.5 192 Q 257.4 189.6 251 178.5 L 246 166.5 L 246 155.5 Q 249 142.5 258.5 136 L 272.5 130 Z " /><path fill="rgb(0,0,0)" stroke="rgb(0,0,0)" stroke-width="1" opacity="0.9725490196078431" d="M 270.5 213 L 296.5 213 L 297 216.5 L 261 332.5 L 258 347.5 L 260.5 351 L 266.5 350 L 277 340.5 L 297.5 311 L 311 321.5 Q 298 348.5 276.5 367 L 258.5 378 L 248.5 381 L 232.5 382 L 219.5 379 L 208 370.5 L 202 357.5 L 202 341.5 L 205 328.5 L 228 260.5 L 231 243.5 L 228 237 L 222.5 235 L 201 235 L 205 216 L 207.5 215 L 238.5 215 L 239.5 214 L 269.5 214 L 270.5 213 Z " /><path fill="rgb(0,0,0)" stroke="rgb(0,0,0)" stroke-width="1" opacity="0" d="M 0 0 L 240 0.5 L 220.5 2 L 190.5 8 Q 165.7 14.7 144.5 25 Q 103.3 45.3 73 76.5 Q 40.2 109.7 20 155.5 L 6 198.5 L 2 220.5 L 0.5 240 L 0 0 Z " /><path fill="rgb(0,0,0)" stroke="rgb(0,0,0)" stroke-width="1" opacity="0" d="M 272.5 0 L 512 0 L 512 239.5 L 511 239.5 L 511 228.5 L 510 227.5 L 510 220.5 L 506 198.5 L 492 155.5 Q 470.8 107.2 435.5 73 Q 402.3 40.2 356.5 20 L 313.5 6 L 291.5 2 L 284.5 2 L 283.5 1 L 272.5 1 L 272.5 0 Z " /><path fill="rgb(0,0,0)" stroke="rgb(0,0,0)" stroke-width="1" opacity="0" d="M 246.5 27 L 279.5 28 L 280.5 29 L 299.5 31 Q 324.5 36 345.5 45 Q 393.5 66 426 102.5 Q 454.5 133.5 471 176.5 L 477 195.5 L 483 224.5 L 484 245.5 L 485 246.5 L 485 265.5 L 484 266.5 L 483 287.5 L 477 316.5 Q 471.2 338.2 462 356.5 Q 441.7 397.2 409.5 426 Q 378.5 454.5 335.5 471 L 316.5 477 L 287.5 483 L 266.5 484 L 265.5 485 L 246.5 485 L 245.5 484 L 224.5 483 L 195.5 477 Q 173.9 471.2 155.5 462 Q 114.8 441.7 86 409.5 Q 57.5 378.5 41 335.5 L 35 316.5 L 29 287.5 L 28 266.5 L 27 265.5 L 27 246.5 L 28 245.5 L 29 224.5 L 35 195.5 Q 40.9 173.9 50 155.5 Q 70.3 114.8 102.5 86 Q 129.9 60.9 166.5 45 Q 185.4 36.9 207.5 32 L 224.5 29 L 231.5 29 L 232.5 28 L 245.5 28 L 246.5 27 Z M 273 130 L 259 136 Q 249 142 246 156 L 246 167 L 251 179 Q 257 190 273 192 Q 287 193 295 186 L 304 175 L 307 163 Q 307 150 301 143 Q 296 136 288 132 L 281 130 L 273 130 Z M 271 213 L 270 214 L 240 214 L 239 215 L 208 215 L 205 216 L 201 235 L 223 235 L 228 237 L 231 244 L 228 261 L 205 329 L 202 342 L 202 358 L 208 371 L 220 379 L 233 382 L 249 381 L 259 378 L 277 367 Q 298 348 311 322 L 298 311 L 277 341 L 267 350 L 261 351 L 258 348 L 261 333 L 297 217 L 297 213 L 271 213 Z " /><path fill="rgb(0,0,0)" stroke="rgb(0,0,0)" stroke-width="1" opacity="0" d="M 0.5 272 L 2 291.5 L 8 321.5 Q 14.7 346.3 25 367.5 Q 45.3 408.7 76.5 439 Q 109.7 471.8 155.5 492 L 198.5 506 L 220.5 510 L 240 511.5 L 0 512 L 0.5 272 Z " /><path fill="rgb(0,0,0)" stroke="rgb(0,0,0)" stroke-width="1" opacity="0" d="M 511.5 272 L 512 512 L 272 511.5 L 291.5 510 L 321.5 504 Q 346.3 497.3 367.5 487 Q 408.7 466.7 439 435.5 Q 471.8 402.3 492 356.5 L 506 313.5 L 510 291.5 L 511.5 272 Z " /></svg>