<?xml version="1.0" encoding="UTF-8" standalone="no"?>
<!DOCTYPE svg PUBLIC "-//W3C//DTD SVG 1.1//EN" "http://www.w3.org/Graphics/SVG/1.1/DTD/svg11.dtd">
<svg width="100%" height="100%" viewBox="0 0 2500 2500" version="1.1" xmlns="http://www.w3.org/2000/svg" xmlns:xlink="http://www.w3.org/1999/xlink" xml:space="preserve" xmlns:serif="http://www.serif.com/" style="fill-rule:evenodd;clip-rule:evenodd;stroke-linejoin:round;stroke-miterlimit:2;">
    <g transform="matrix(12.969765,0,0,12.969765,0,0)">
        <g transform="matrix(1,0,0,1,10.563029,-39.630634)">
            <rect x="0" y="0" width="192.756" height="192.756" style="fill:white;fill-opacity:0;"/>
        </g>
        <g transform="matrix(-0.37611,0.733624,-0.326539,-0.167408,137.375035,5.846611)">
            <path d="M42.741,71.477C32.86,83.081 23.386,97.471 23.291,108.227C23.254,112.274 24.546,115.807 27.645,118.483C32.105,122.337 37.019,123.696 41.909,123.704C49.055,123.714 56.151,120.831 61.707,118.608C71.064,114.866 174.497,69.949 174.497,69.949C175.495,69.449 175.308,68.826 174.059,69.137C173.555,69.263 61.456,99.642 61.456,99.642C59.333,100.243 57.139,100.557 54.932,100.576C46.317,100.627 61.957,41.847 62.019,31.77C62.043,27.827 39.944,77.07 42.741,71.477Z"/>
        </g>
        <g transform="matrix(0.07037,-0.997521,-0.997521,-0.07037,144.361757,195.883333)">
            <path d="M42.741,71.477C32.86,83.081 23.386,97.471 23.291,108.227C23.254,112.274 24.546,115.807 27.645,118.483C32.105,122.337 37.019,123.696 41.909,123.704C49.055,123.714 56.151,120.831 61.707,118.608C71.064,114.866 174.497,69.949 174.497,69.949C175.495,69.449 175.308,68.826 174.059,69.137C173.555,69.263 61.456,99.642 61.456,99.642C59.333,100.243 57.139,100.557 54.932,100.576C46.317,100.627 38.651,95.845 38.713,85.768C38.737,81.825 39.944,77.07 42.741,71.477Z"/>
        </g>
        <g transform="matrix(0.37611,0.733624,0.326539,-0.167408,69.012423,5.692407)">
            <path d="M42.741,71.477C32.86,83.081 23.386,97.471 23.291,108.227C23.254,112.274 24.546,115.807 27.645,118.483C32.105,122.337 37.019,123.696 41.909,123.704C49.055,123.714 56.151,120.831 61.707,118.608C71.064,114.866 174.497,69.949 174.497,69.949C175.495,69.449 175.308,68.826 174.059,69.137C173.555,69.263 61.456,99.642 61.456,99.642C59.333,100.243 57.139,100.557 54.932,100.576C46.317,100.627 61.957,41.847 62.019,31.77C62.043,27.827 39.944,77.07 42.741,71.477Z"/>
        </g>
        <g transform="matrix(-0.07037,-0.997521,0.997521,-0.07037,61.328469,191.874008)">
            <path d="M42.741,71.477C32.86,83.081 23.386,97.471 23.291,108.227C23.254,112.274 24.546,115.807 27.645,118.483C32.105,122.337 37.019,123.696 41.909,123.704C49.055,123.714 56.151,120.831 61.707,118.608C71.064,114.866 174.497,69.949 174.497,69.949C175.495,69.449 175.308,68.826 174.059,69.137C173.555,69.263 61.456,99.642 61.456,99.642C59.333,100.243 57.139,100.557 54.932,100.576C46.317,100.627 38.651,95.845 38.713,85.768C38.737,81.825 39.944,77.07 42.741,71.477Z"/>
        </g>
    </g>
</svg>
